<svg id="visual" viewBox="0 0 1920 1080" width="1920" height="1080" xmlns="http://www.w3.org/2000/svg" xmlns:xlink="http://www.w3.org/1999/xlink" version="1.1"><rect x="0" y="0" width="1920" height="1080" fill="#f0f0ff00"></rect><defs><linearGradient id="grad1_0" x1="43.8%" y1="100%" x2="100%" y2="0%"><stop offset="14.444444444444446%" stop-color="#ded8ca" stop-opacity="1"></stop><stop offset="85.55555555555554%" stop-color="#ded8ca" stop-opacity="1"></stop></linearGradient></defs><defs><linearGradient id="grad1_1" x1="43.8%" y1="100%" x2="100%" y2="0%"><stop offset="14.444444444444446%" stop-color="#ded8ca" stop-opacity="1"></stop><stop offset="85.55555555555554%" stop-color="#f5e0e2" stop-opacity="1"></stop></linearGradient></defs><defs><linearGradient id="grad1_2" x1="43.8%" y1="100%" x2="100%" y2="0%"><stop offset="14.444444444444446%" stop-color="#f0f0ff00" stop-opacity="1"></stop><stop offset="85.55555555555554%" stop-color="#f5e0e2" stop-opacity="1"></stop></linearGradient></defs><defs><linearGradient id="grad2_0" x1="0%" y1="100%" x2="56.3%" y2="0%"><stop offset="14.444444444444446%" stop-color="#ded8ca" stop-opacity="1"></stop><stop offset="85.55555555555554%" stop-color="#ded8ca" stop-opacity="1"></stop></linearGradient></defs><defs><linearGradient id="grad2_1" x1="0%" y1="100%" x2="56.3%" y2="0%"><stop offset="14.444444444444446%" stop-color="#f5e0e2" stop-opacity="1"></stop><stop offset="85.55555555555554%" stop-color="#ded8ca" stop-opacity="1"></stop></linearGradient></defs><defs><linearGradient id="grad2_2" x1="0%" y1="100%" x2="56.3%" y2="0%"><stop offset="14.444444444444446%" stop-color="#f5e0e2" stop-opacity="1"></stop><stop offset="85.55555555555554%" stop-color="#f0f0ff00" stop-opacity="1"></stop></linearGradient></defs><g transform="translate(1920, 1080)"><path d="M-810 0C-808.3 -33 -806.6 -66 -795.2 -96.5C-783.7 -127.1 -762.4 -155.1 -753.5 -185.7C-744.5 -216.3 -747.9 -249.5 -745.2 -282.6C-742.5 -315.7 -733.8 -348.8 -715.4 -375.5C-697.1 -402.2 -669.2 -422.4 -649.3 -448.2C-629.4 -474 -617.5 -505.3 -596.6 -528.5C-575.6 -551.7 -545.7 -566.7 -521.2 -588.3C-496.7 -609.9 -477.7 -638.1 -449.9 -651.8C-422.1 -665.5 -385.4 -664.8 -357.4 -680.9C-329.3 -697 -309.9 -730 -283 -746.1C-256 -762.3 -221.6 -761.5 -189.8 -770C-158 -778.4 -128.8 -795.9 -97.6 -804.1C-66.4 -812.3 -33.2 -811.1 0 -810L0 0Z" fill="hsla(14, 83%, 59%, 60%)"></path><path d="M-540 0C-538.9 -22 -537.8 -44 -530.1 -64.4C-522.5 -84.7 -508.3 -103.4 -502.3 -123.8C-496.3 -144.2 -498.6 -166.3 -496.8 -188.4C-495 -210.5 -489.2 -232.6 -477 -250.3C-464.8 -268.1 -446.2 -281.6 -432.9 -298.8C-419.6 -316 -411.7 -336.9 -397.7 -352.3C-383.8 -367.8 -363.8 -377.8 -347.5 -392.2C-331.2 -406.6 -318.5 -425.4 -299.9 -434.5C-281.4 -443.7 -256.9 -443.2 -238.2 -453.9C-219.6 -464.7 -206.6 -486.7 -188.6 -497.4C-170.7 -508.2 -147.7 -507.7 -126.5 -513.3C-105.3 -518.9 -85.9 -530.6 -65.1 -536.1C-44.3 -541.5 -22.1 -540.8 0 -540L0 0Z" fill="hsl(44, 100%, 72%, 70%)"></path><path d="M-270 0C-269.4 -11 -268.9 -22 -265.1 -32.2C-261.2 -42.4 -254.1 -51.7 -251.2 -61.9C-248.2 -72.1 -249.3 -83.2 -248.4 -94.2C-247.5 -105.2 -244.6 -116.3 -238.5 -125.2C-232.4 -134.1 -223.1 -140.8 -216.4 -149.4C-209.8 -158 -205.8 -168.4 -198.9 -176.2C-191.9 -183.9 -181.9 -188.9 -173.7 -196.1C-165.6 -203.3 -159.2 -212.7 -150 -217.3C-140.7 -221.8 -128.5 -221.6 -119.1 -227C-109.8 -232.3 -103.3 -243.3 -94.3 -248.7C-85.3 -254.1 -73.9 -253.8 -63.3 -256.7C-52.7 -259.5 -42.9 -265.3 -32.5 -268C-22.1 -270.8 -11.1 -270.4 0 -270L0 0Z" fill="hsl(231, 74%, 53%, 80%)"></path></g><g transform="translate(0, 0)"></g></svg>