<svg id="visual" viewBox="0 0 1920 1080" width="1920" height="1080" xmlns="http://www.w3.org/2000/svg" xmlns:xlink="http://www.w3.org/1999/xlink" version="1.1"><path d="M0 1073L160 1073.8C320 1074.7 640 1076.3 960 1062C1280 1047.7 1600 1017.3 1760 1002.2L1920 987L1920 0L1760 0C1600 0 1280 0 960 0C640 0 320 0 160 0L0 0Z" fill="#1593f4"></path><path d="M0 924L160 907.8C320 891.7 640 859.3 960 864C1280 868.7 1600 910.3 1760 931.2L1920 952L1920 0L1760 0C1600 0 1280 0 960 0C640 0 320 0 160 0L0 0Z" fill="#2598f5"></path><path d="M0 744L160 753.8C320 763.7 640 783.3 960 800C1280 816.7 1600 830.3 1760 837.2L1920 844L1920 0L1760 0C1600 0 1280 0 960 0C640 0 320 0 160 0L0 0Z" fill="#329ef6"></path><path d="M0 726L160 724.7C320 723.3 640 720.7 960 717.3C1280 714 1600 710 1760 708L1920 706L1920 0L1760 0C1600 0 1280 0 960 0C640 0 320 0 160 0L0 0Z" fill="#3da3f6"></path><path d="M0 611L160 608C320 605 640 599 960 603.3C1280 607.7 1600 622.3 1760 629.7L1920 637L1920 0L1760 0C1600 0 1280 0 960 0C640 0 320 0 160 0L0 0Z" fill="#48a8f7"></path><path d="M0 590L160 588.7C320 587.3 640 584.7 960 583.3C1280 582 1600 582 1760 582L1920 582L1920 0L1760 0C1600 0 1280 0 960 0C640 0 320 0 160 0L0 0Z" fill="#52adf7"></path><path d="M0 369L160 391.2C320 413.3 640 457.7 960 474C1280 490.3 1600 478.7 1760 472.8L1920 467L1920 0L1760 0C1600 0 1280 0 960 0C640 0 320 0 160 0L0 0Z" fill="#5cb2f7"></path><path d="M0 297L160 302.8C320 308.7 640 320.3 960 322.7C1280 325 1600 318 1760 314.5L1920 311L1920 0L1760 0C1600 0 1280 0 960 0C640 0 320 0 160 0L0 0Z" fill="#65b7f8"></path><path d="M0 269L160 257.5C320 246 640 223 960 220.5C1280 218 1600 236 1760 245L1920 254L1920 0L1760 0C1600 0 1280 0 960 0C640 0 320 0 160 0L0 0Z" fill="#6ebcf8"></path><path d="M0 158L160 173.3C320 188.7 640 219.3 960 212C1280 204.7 1600 159.3 1760 136.7L1920 114L1920 0L1760 0C1600 0 1280 0 960 0C640 0 320 0 160 0L0 0Z" fill="#77c0f9"></path><path d="M0 53L160 45C320 37 640 21 960 29.5C1280 38 1600 71 1760 87.5L1920 104L1920 0L1760 0C1600 0 1280 0 960 0C640 0 320 0 160 0L0 0Z" fill="#80c5f9"></path><path d="M0 619L274 423L549 731L823 642L1097 664L1371 600L1646 595L1920 610L1920 1081L1646 1081L1371 1081L1097 1081L823 1081L549 1081L274 1081L0 1081Z" fill="#ff825c"></path><path d="M0 466L274 685L549 661L823 350L1097 759L1371 601L1646 407L1920 464L1920 1081L1646 1081L1371 1081L1097 1081L823 1081L549 1081L274 1081L0 1081Z" fill="#f57953"></path><path d="M0 711L274 754L549 618L823 641L1097 545L1371 579L1646 599L1920 840L1920 1081L1646 1081L1371 1081L1097 1081L823 1081L549 1081L274 1081L0 1081Z" fill="#ea704b"></path><path d="M0 521L274 604L549 718L823 765L1097 690L1371 740L1646 555L1920 690L1920 1081L1646 1081L1371 1081L1097 1081L823 1081L549 1081L274 1081L0 1081Z" fill="#e06843"></path><path d="M0 620L274 620L549 665L823 682L1097 595L1371 650L1646 568L1920 662L1920 1081L1646 1081L1371 1081L1097 1081L823 1081L549 1081L274 1081L0 1081Z" fill="#d55f3a"></path><path d="M0 886L274 880L549 618L823 808L1097 814L1371 892L1646 635L1920 890L1920 1081L1646 1081L1371 1081L1097 1081L823 1081L549 1081L274 1081L0 1081Z" fill="#cb5632"></path><path d="M0 916L274 748L549 705L823 836L1097 889L1371 680L1646 798L1920 808L1920 1081L1646 1081L1371 1081L1097 1081L823 1081L549 1081L274 1081L0 1081Z" fill="#c14e2a"></path><path d="M0 856L274 876L549 945L823 752L1097 777L1371 928L1646 832L1920 912L1920 1081L1646 1081L1371 1081L1097 1081L823 1081L549 1081L274 1081L0 1081Z" fill="#b74522"></path><path d="M0 884L274 898L549 947L823 932L1097 791L1371 783L1646 825L1920 772L1920 1081L1646 1081L1371 1081L1097 1081L823 1081L549 1081L274 1081L0 1081Z" fill="#ad3c1a"></path><path d="M0 932L274 914L549 836L823 900L1097 900L1371 987L1646 900L1920 881L1920 1081L1646 1081L1371 1081L1097 1081L823 1081L549 1081L274 1081L0 1081Z" fill="#a33311"></path><path d="M0 995L274 1010L549 991L823 969L1097 907L1371 933L1646 949L1920 1006L1920 1081L1646 1081L1371 1081L1097 1081L823 1081L549 1081L274 1081L0 1081Z" fill="#992a08"></path><path d="M0 956L274 1023L549 976L823 987L1097 1014L1371 1015L1646 1016L1920 1032L1920 1081L1646 1081L1371 1081L1097 1081L823 1081L549 1081L274 1081L0 1081Z" fill="#8f2100"></path></svg>