<svg id="visual" viewBox="0 0 1920 1080" width="1920" height="1080" xmlns="http://www.w3.org/2000/svg" xmlns:xlink="http://www.w3.org/1999/xlink" version="1.1"><path d="M0 904L32 901.5C64 899 128 894 192 909.2C256 924.3 320 959.7 384 973.5C448 987.3 512 979.7 576 971.8C640 964 704 956 768 958.7C832 961.3 896 974.7 960 987.7C1024 1000.7 1088 1013.3 1152 996.5C1216 979.7 1280 933.3 1344 924.3C1408 915.3 1472 943.7 1536 967.5C1600 991.3 1664 1010.7 1728 1008.2C1792 1005.7 1856 981.3 1888 969.2L1920 957L1920 0L1888 0C1856 0 1792 0 1728 0C1664 0 1600 0 1536 0C1472 0 1408 0 1344 0C1280 0 1216 0 1152 0C1088 0 1024 0 960 0C896 0 832 0 768 0C704 0 640 0 576 0C512 0 448 0 384 0C320 0 256 0 192 0C128 0 64 0 32 0L0 0Z" fill="#80c5f9"></path><path d="M0 945L32 918.8C64 892.7 128 840.3 192 815C256 789.7 320 791.3 384 815.7C448 840 512 887 576 916.3C640 945.7 704 957.3 768 952C832 946.7 896 924.3 960 905C1024 885.7 1088 869.3 1152 851.8C1216 834.3 1280 815.7 1344 826.8C1408 838 1472 879 1536 909.3C1600 939.7 1664 959.3 1728 953C1792 946.7 1856 914.3 1888 898.2L1920 882L1920 0L1888 0C1856 0 1792 0 1728 0C1664 0 1600 0 1536 0C1472 0 1408 0 1344 0C1280 0 1216 0 1152 0C1088 0 1024 0 960 0C896 0 832 0 768 0C704 0 640 0 576 0C512 0 448 0 384 0C320 0 256 0 192 0C128 0 64 0 32 0L0 0Z" fill="#8ecafa"></path><path d="M0 760L32 756.3C64 752.7 128 745.3 192 747.7C256 750 320 762 384 766C448 770 512 766 576 778C640 790 704 818 768 832.3C832 846.7 896 847.3 960 822C1024 796.7 1088 745.3 1152 751C1216 756.7 1280 819.3 1344 844.8C1408 870.3 1472 858.7 1536 848.2C1600 837.7 1664 828.3 1728 814.8C1792 801.3 1856 783.7 1888 774.8L1920 766L1920 0L1888 0C1856 0 1792 0 1728 0C1664 0 1600 0 1536 0C1472 0 1408 0 1344 0C1280 0 1216 0 1152 0C1088 0 1024 0 960 0C896 0 832 0 768 0C704 0 640 0 576 0C512 0 448 0 384 0C320 0 256 0 192 0C128 0 64 0 32 0L0 0Z" fill="#9bcffa"></path><path d="M0 756L32 749.8C64 743.7 128 731.3 192 734.5C256 737.7 320 756.3 384 771.8C448 787.3 512 799.7 576 795.5C640 791.3 704 770.7 768 749.5C832 728.3 896 706.7 960 690.5C1024 674.3 1088 663.7 1152 687.3C1216 711 1280 769 1344 761.3C1408 753.7 1472 680.3 1536 661.5C1600 642.7 1664 678.3 1728 710C1792 741.7 1856 769.3 1888 783.2L1920 797L1920 0L1888 0C1856 0 1792 0 1728 0C1664 0 1600 0 1536 0C1472 0 1408 0 1344 0C1280 0 1216 0 1152 0C1088 0 1024 0 960 0C896 0 832 0 768 0C704 0 640 0 576 0C512 0 448 0 384 0C320 0 256 0 192 0C128 0 64 0 32 0L0 0Z" fill="#a7d5fb"></path><path d="M0 664L32 670.2C64 676.3 128 688.7 192 701.7C256 714.7 320 728.3 384 733.7C448 739 512 736 576 704.2C640 672.3 704 611.7 768 578C832 544.3 896 537.7 960 562.2C1024 586.7 1088 642.3 1152 641.2C1216 640 1280 582 1344 560.5C1408 539 1472 554 1536 580.3C1600 606.7 1664 644.3 1728 661.3C1792 678.3 1856 674.7 1888 672.8L1920 671L1920 0L1888 0C1856 0 1792 0 1728 0C1664 0 1600 0 1536 0C1472 0 1408 0 1344 0C1280 0 1216 0 1152 0C1088 0 1024 0 960 0C896 0 832 0 768 0C704 0 640 0 576 0C512 0 448 0 384 0C320 0 256 0 192 0C128 0 64 0 32 0L0 0Z" fill="#b3dafb"></path><path d="M0 558L32 562C64 566 128 574 192 556.2C256 538.3 320 494.7 384 503.8C448 513 512 575 576 574.7C640 574.3 704 511.7 768 493.5C832 475.3 896 501.7 960 512.7C1024 523.7 1088 519.3 1152 537C1216 554.7 1280 594.3 1344 595C1408 595.7 1472 557.3 1536 557.2C1600 557 1664 595 1728 589.2C1792 583.3 1856 533.7 1888 508.8L1920 484L1920 0L1888 0C1856 0 1792 0 1728 0C1664 0 1600 0 1536 0C1472 0 1408 0 1344 0C1280 0 1216 0 1152 0C1088 0 1024 0 960 0C896 0 832 0 768 0C704 0 640 0 576 0C512 0 448 0 384 0C320 0 256 0 192 0C128 0 64 0 32 0L0 0Z" fill="#bedffc"></path><path d="M0 553L32 524.3C64 495.7 128 438.3 192 412.8C256 387.3 320 393.7 384 408C448 422.3 512 444.7 576 458.3C640 472 704 477 768 465.5C832 454 896 426 960 410.5C1024 395 1088 392 1152 412.5C1216 433 1280 477 1344 496C1408 515 1472 509 1536 515.5C1600 522 1664 541 1728 531.3C1792 521.7 1856 483.3 1888 464.2L1920 445L1920 0L1888 0C1856 0 1792 0 1728 0C1664 0 1600 0 1536 0C1472 0 1408 0 1344 0C1280 0 1216 0 1152 0C1088 0 1024 0 960 0C896 0 832 0 768 0C704 0 640 0 576 0C512 0 448 0 384 0C320 0 256 0 192 0C128 0 64 0 32 0L0 0Z" fill="#cae5fc"></path><path d="M0 379L32 397.7C64 416.3 128 453.7 192 441.2C256 428.7 320 366.3 384 338C448 309.7 512 315.3 576 338.5C640 361.7 704 402.3 768 418.8C832 435.3 896 427.7 960 425.2C1024 422.7 1088 425.3 1152 431.3C1216 437.3 1280 446.7 1344 453.2C1408 459.7 1472 463.3 1536 464.3C1600 465.3 1664 463.7 1728 440.7C1792 417.7 1856 373.3 1888 351.2L1920 329L1920 0L1888 0C1856 0 1792 0 1728 0C1664 0 1600 0 1536 0C1472 0 1408 0 1344 0C1280 0 1216 0 1152 0C1088 0 1024 0 960 0C896 0 832 0 768 0C704 0 640 0 576 0C512 0 448 0 384 0C320 0 256 0 192 0C128 0 64 0 32 0L0 0Z" fill="#d5eafd"></path><path d="M0 268L32 272.3C64 276.7 128 285.3 192 297.3C256 309.3 320 324.7 384 342.2C448 359.7 512 379.3 576 376.2C640 373 704 347 768 331C832 315 896 309 960 302.7C1024 296.3 1088 289.7 1152 278.2C1216 266.7 1280 250.3 1344 256.2C1408 262 1472 290 1536 302.2C1600 314.3 1664 310.7 1728 300.8C1792 291 1856 275 1888 267L1920 259L1920 0L1888 0C1856 0 1792 0 1728 0C1664 0 1600 0 1536 0C1472 0 1408 0 1344 0C1280 0 1216 0 1152 0C1088 0 1024 0 960 0C896 0 832 0 768 0C704 0 640 0 576 0C512 0 448 0 384 0C320 0 256 0 192 0C128 0 64 0 32 0L0 0Z" fill="#dfeffd"></path><path d="M0 325L32 309.5C64 294 128 263 192 262.2C256 261.3 320 290.7 384 293C448 295.3 512 270.7 576 254.7C640 238.7 704 231.3 768 239.5C832 247.7 896 271.3 960 267.8C1024 264.3 1088 233.7 1152 217.5C1216 201.3 1280 199.7 1344 216.5C1408 233.3 1472 268.7 1536 289.3C1600 310 1664 316 1728 306.3C1792 296.7 1856 271.3 1888 258.7L1920 246L1920 0L1888 0C1856 0 1792 0 1728 0C1664 0 1600 0 1536 0C1472 0 1408 0 1344 0C1280 0 1216 0 1152 0C1088 0 1024 0 960 0C896 0 832 0 768 0C704 0 640 0 576 0C512 0 448 0 384 0C320 0 256 0 192 0C128 0 64 0 32 0L0 0Z" fill="#eaf4fe"></path><path d="M0 234L32 220.2C64 206.3 128 178.7 192 175.5C256 172.3 320 193.7 384 185.2C448 176.7 512 138.3 576 136.5C640 134.7 704 169.3 768 167C832 164.7 896 125.3 960 116C1024 106.7 1088 127.3 1152 152C1216 176.7 1280 205.3 1344 207.7C1408 210 1472 186 1536 186.8C1600 187.7 1664 213.3 1728 226.3C1792 239.3 1856 239.7 1888 239.8L1920 240L1920 0L1888 0C1856 0 1792 0 1728 0C1664 0 1600 0 1536 0C1472 0 1408 0 1344 0C1280 0 1216 0 1152 0C1088 0 1024 0 960 0C896 0 832 0 768 0C704 0 640 0 576 0C512 0 448 0 384 0C320 0 256 0 192 0C128 0 64 0 32 0L0 0Z" fill="#f5faff"></path><path d="M0 3L32 19.8C64 36.7 128 70.3 192 83C256 95.7 320 87.3 384 95C448 102.7 512 126.3 576 122C640 117.7 704 85.3 768 62C832 38.7 896 24.3 960 27C1024 29.7 1088 49.3 1152 52C1216 54.7 1280 40.3 1344 52.5C1408 64.7 1472 103.3 1536 111.3C1600 119.3 1664 96.7 1728 79.3C1792 62 1856 50 1888 44L1920 38L1920 0L1888 0C1856 0 1792 0 1728 0C1664 0 1600 0 1536 0C1472 0 1408 0 1344 0C1280 0 1216 0 1152 0C1088 0 1024 0 960 0C896 0 832 0 768 0C704 0 640 0 576 0C512 0 448 0 384 0C320 0 256 0 192 0C128 0 64 0 32 0L0 0Z" fill="#ffffff"></path></svg>