<svg id="visual" viewBox="0 0 1920 1080" width="1920" height="1080" xmlns="http://www.w3.org/2000/svg" xmlns:xlink="http://www.w3.org/1999/xlink" version="1.1"><g transform="translate(-122.7061677907572 946.1892429929371)"><path d="M111.9 -225.9C223.7 -129.2 447.4 -258.3 672.4 -258.3C897.4 -258.3 1123.7 -129.2 1121 -1.6C1118.2 126 886.5 252 705.4 328.1C524.3 404.1 393.9 430.3 284.8 518.4C175.7 606.6 87.8 756.8 -61.7 863.8C-211.3 970.7 -422.7 1034.4 -485.7 919.7C-548.8 804.9 -463.6 511.7 -556.5 328.7C-649.3 145.7 -920.2 72.8 -869.3 29.3C-818.5 -14.2 -446.1 -28.3 -280.9 -86.1C-115.7 -143.8 -157.9 -245.1 -145.6 -399.4C-133.3 -553.6 -66.7 -760.8 -33.3 -703.1C0 -645.3 0 -322.7 111.9 -225.9" fill="#ffffff"></path></g></svg>