<svg width="855" height="578" viewBox="0 0 855 578" fill="none" xmlns="http://www.w3.org/2000/svg">
<g clip-path="url(#clip0_1_2)">
<path d="M261.557 268H151.557V391H261.557V268Z" fill="#CCCCCC"/>
<path d="M95.557 576H39.557L33.557 528H101.557L95.557 576Z" fill="#E6E6E6"/>
<path d="M208.007 541.232L206.117 567.067C206.032 568.237 206.197 569.411 206.603 570.511C207.008 571.611 207.644 572.612 208.468 573.446C209.292 574.281 210.285 574.929 211.38 575.348C212.475 575.767 213.647 575.947 214.817 575.877L228.087 575.073C228.702 575.035 229.301 574.863 229.842 574.568C230.383 574.273 230.852 573.863 231.216 573.366C231.58 572.869 231.83 572.298 231.949 571.694C232.068 571.089 232.052 570.466 231.902 569.868L224.537 540.406L208.007 541.232Z" fill="#E6E6E6"/>
<path d="M319.003 556.509C334.62 560.163 345.777 565.356 353.106 572.384C355.716 574.867 359.131 576.331 362.729 576.509C367.326 576.751 371.084 576.236 373.909 574.974C374.632 574.655 375.258 574.148 375.719 573.506C376.181 572.864 376.462 572.111 376.534 571.323C376.619 570.523 376.489 569.715 376.157 568.982C375.825 568.25 375.303 567.619 374.645 567.156L337.606 540.802L321.873 547.096L318.202 550.766C317.805 551.163 317.505 551.648 317.327 552.18C317.148 552.713 317.096 553.28 317.173 553.837C317.251 554.393 317.456 554.924 317.774 555.388C318.091 555.852 318.512 556.236 319.003 556.509Z" fill="#E6E6E6"/>
<path d="M270.94 134.695L165.067 133.714C165.333 118.294 168.921 103.151 176.764 89.6005C181.914 80.701 181.803 71.0157 180.562 62.8561C178.646 50.2641 183.101 37.3806 192.999 29.3649C200.563 23.2285 210.11 20.0698 219.842 20.4835L221.897 20.5692C228.594 20.8475 235.113 22.8036 240.856 26.258C246.6 29.7123 251.383 34.5542 254.768 40.339C258.208 46.5146 259.595 53.624 258.729 60.6398C258.058 67.241 259.664 73.9096 263.42 80.6416C269.9 95.4242 271.303 114.34 270.94 134.695Z" fill="#2F2E41"/>
<path d="M341.775 542.176L320.996 547.597L219.813 327.161L226.137 542.176H205.358C183.154 441.018 143.067 324.27 161.09 287.41L268.597 281.086L341.775 542.176Z" fill="#6C63FF"/>
<path d="M218.909 97.6912C234.376 97.6912 246.915 85.1524 246.915 69.685C246.915 54.2177 234.376 41.6789 218.909 41.6789C203.442 41.6789 190.903 54.2177 190.903 69.685C190.903 85.1524 203.442 97.6912 218.909 97.6912Z" fill="#FFB9B9"/>
<path d="M243.302 121.18L197.227 118.47C201.742 108.106 203.546 98.1264 201.744 88.657H236.074C235.996 95.9276 239.614 108.504 243.302 121.18Z" fill="#FFB9B9"/>
<path d="M272.211 289.217L171.028 296.445L181.417 117.115L199.034 112.146L218.909 116.663L238.784 106.725L251.432 111.243L272.211 289.217Z" fill="#6C63FF"/>
<path d="M188.193 418.407L119.081 402.597C139.631 334.449 176.654 178.546 164.704 122.987L200.841 106.725L188.193 418.407Z" fill="#E6E6E6"/>
<path d="M154.766 221.46L128.567 205.199L150.91 139.759C153.402 133.007 158.175 127.337 164.404 123.731L171.931 119.373L167.414 185.323L154.766 221.46Z" fill="#E6E6E6"/>
<path d="M332.289 403.501C310.476 416.121 255.95 423.156 232.009 414.342C230.247 352.769 226.792 178.603 237.881 104.919L277.632 121.18L274.018 169.965C255.014 211.698 310.198 357.054 332.289 403.501Z" fill="#E6E6E6"/>
<path d="M329.127 213.33L304.734 205.199L272.211 168.158L277.632 121.18L331.837 197.068L329.127 213.33Z" fill="#E6E6E6"/>
<path d="M252.681 248.494C253.08 250.245 254.158 251.767 255.677 252.725C257.196 253.684 259.034 254 260.786 253.606L281.492 248.917L278.5 235.7L257.793 240.389C256.041 240.786 254.518 241.863 253.559 243.383C252.6 244.903 252.285 246.741 252.681 248.494Z" fill="#FFB9B9"/>
<path d="M243.302 62.4576C227.746 56.0611 212.382 55.5982 197.227 61.5542L190.903 38.9686H248.722L243.302 62.4576Z" fill="#2F2E41"/>
<path d="M271.308 233.205L283.052 254.887C302.806 249.378 319.926 232.008 336.354 211.523L331.837 197.068L303.831 204.295L271.308 233.205Z" fill="#E6E6E6"/>
<path d="M118.177 165.193L140.724 169.219L192.258 242.495L164.88 236.053L118.177 165.193Z" fill="#6C63FF"/>
<path d="M114.178 164.296C113.834 164.301 113.498 164.398 113.205 164.578C112.912 164.757 112.673 165.012 112.512 165.316C112.351 165.619 112.275 165.961 112.291 166.304C112.307 166.647 112.416 166.98 112.604 167.267L160.776 240.355C161.045 240.763 161.46 241.053 161.936 241.165L184.349 246.438C184.727 246.527 185.123 246.499 185.484 246.358C185.846 246.217 186.156 245.969 186.373 245.647C186.591 245.325 186.705 244.945 186.702 244.557C186.698 244.169 186.576 243.791 186.353 243.474L133.464 168.272C133.321 168.067 133.138 167.892 132.927 167.758C132.716 167.624 132.481 167.532 132.235 167.489L114.539 164.329C114.42 164.307 114.299 164.296 114.178 164.296Z" fill="#3F3D56"/>
<path d="M144.227 216.553L145.566 230.038L166.693 227.941C168.481 227.764 170.125 226.883 171.264 225.493C172.403 224.103 172.944 222.317 172.766 220.529C172.589 218.741 171.708 217.096 170.318 215.957C168.928 214.819 167.142 214.278 165.354 214.456L144.227 216.553Z" fill="#FFB9B9"/>
<path d="M125.857 214.991C125.887 219.589 127.734 223.989 130.995 227.231C134.255 230.474 138.665 232.296 143.263 232.302H146.737L149.266 211.226L128.326 203.688L125.857 214.991Z" fill="#E6E6E6"/>
<path d="M854.557 0H442.557V217H854.557V0Z" fill="#E6E6E6"/>
<path d="M454.557 205H842.557V12H454.557V205Z" fill="white"/>
<path d="M622.557 40H484.557V178H622.557V40Z" fill="#3F3D56"/>
<path d="M570.557 37H530.557V43H570.557V37Z" fill="#E6E6E6"/>
<path d="M798.557 40H660.557V178H798.557V40Z" fill="#3F3D56"/>
<path d="M746.557 37H706.557V43H746.557V37Z" fill="#E6E6E6"/>
<path d="M25.1764 510.243C39.5961 529.554 69.5284 531.587 69.5284 531.587C69.5284 531.587 76.082 502.31 61.6623 482.999C47.2427 463.688 17.3103 461.655 17.3103 461.655C17.3103 461.655 10.7568 490.932 25.1764 510.243Z" fill="#E6E6E6"/>
<path d="M98.6331 517.503C89.118 530.245 69.3665 531.587 69.3665 531.587C69.3665 531.587 65.0421 512.268 74.5572 499.525C84.0723 486.782 103.824 485.441 103.824 485.441C103.824 485.441 108.148 504.76 98.6331 517.503Z" fill="#E6E6E6"/>
<path d="M519.557 575.656H0V577.897H519.557V575.656Z" fill="#3F3D56"/>
<g clip-path="url(#clip1_1_2)">
<path d="M553.505 86.5345V115.239C548.16 115.239 548.263 135 542.238 135C541.274 135 540.414 134.82 539.622 134.441C538.434 133.873 537.418 132.857 536.515 131.334C534.811 128.433 533.52 123.699 532.203 116.719C531.11 110.901 529.319 107.467 527.615 99.4364C527.021 96.6391 526.875 94.0829 527.099 91.8365C527.684 85.6911 530.98 81.7835 535.327 81.1294C536.179 81.0003 537.04 80.9745 537.909 81.0262C544.691 81.4048 551.629 86.5345 553.505 86.5345Z" fill="#CFEAEE"/>
<path d="M579.395 99.436C577.691 107.466 575.901 110.9 574.808 116.719C572.346 129.784 569.962 135 564.772 135C558.747 135 558.851 115.238 553.506 115.238V86.5341C555.614 86.5341 564.178 80.01 571.683 81.129C572.389 81.2322 573.061 81.4302 573.706 81.7057C575.711 82.5491 577.381 84.193 578.5 86.4997C580.041 89.6757 580.523 94.1083 579.395 99.436Z" fill="#CFEAEE"/>
<path d="M579.394 99.4361C577.69 107.466 575.9 110.901 574.806 116.719C572.345 129.784 569.961 135 564.771 135C558.746 135 558.849 115.238 553.504 115.238C548.159 115.238 548.263 135 542.238 135C541.274 135 540.413 134.819 539.621 134.441C538.433 133.873 537.418 132.857 536.514 131.334C534.81 128.433 533.519 123.699 532.202 116.719C531.109 110.901 529.319 107.466 527.614 99.4361C527.021 96.6389 526.874 94.0826 527.098 91.8362C527.683 85.6908 530.98 81.7833 535.326 81.1291C536.178 81.0001 537.039 80.9742 537.908 81.0259C544.691 81.4046 551.628 86.5343 553.504 86.5343C555.613 86.5343 564.177 80.0102 571.682 81.1291C572.388 81.2324 573.059 81.4304 573.705 81.7058C575.71 82.5493 577.38 84.1932 578.499 86.4999C580.04 89.6758 580.522 94.1083 579.394 99.4361Z" fill="#EAF6F8"/>
<path d="M548.908 86.7831C545.682 85.1772 541.265 82.978 537.13 82.978C536.61 82.978 536.103 83.0144 535.624 83.0862C533.791 83.3607 532.207 84.3933 531.041 86.0727C528.978 89.0465 528.435 93.769 529.551 99.0287C530.405 103.056 531.298 105.957 532.086 108.517C532.86 111.031 533.591 113.407 534.147 116.357C536.772 130.295 539.101 133.022 542.237 133.022C542.761 133.022 543.437 132.243 544.091 130.885C544.953 129.094 545.664 126.575 546.352 124.138C547.93 118.548 549.42 113.267 553.506 113.267V88.5076C552.372 88.5076 551.068 87.8584 548.908 86.7831Z" fill="#EAF6F8"/>
<path opacity="0.5" d="M560.659 124.138C561.347 126.575 562.058 129.095 562.92 130.885C563.574 132.243 564.25 133.022 564.774 133.022C567.91 133.022 570.239 130.295 572.864 116.357C573.42 113.407 574.151 111.031 574.925 108.516C575.713 105.957 576.606 103.056 577.461 99.0287C578.576 93.7688 578.033 89.0465 575.97 86.0725C574.804 84.3931 573.22 83.3607 571.387 83.0862C570.908 83.0144 570.401 82.978 569.881 82.978C565.746 82.978 561.329 85.1772 558.103 86.7831C555.943 87.8584 554.639 88.5076 553.506 88.5076V113.267C557.592 113.267 559.082 118.548 560.659 124.138Z" fill="#DDF0F6"/>
<path d="M546.356 90.7671C546.038 90.393 545.477 90.3475 545.103 90.6652C544.729 90.9831 544.683 91.5442 545.001 91.9184C547.267 94.5859 550.285 96.8413 553.506 96.8758V91.1501C550.815 91.1843 548.279 93.0303 546.356 90.7671Z" fill="#B6D0D5"/>
<path d="M562.16 91.9184C562.478 91.5441 562.432 90.9831 562.058 90.6652C561.684 90.3475 561.123 90.393 560.805 90.7671C558.864 93.0513 556.298 91.1485 553.58 91.1485C553.555 91.1485 553.531 91.1498 553.506 91.1501V96.8758C553.531 96.8761 553.555 96.8775 553.58 96.8775C556.829 96.8775 559.876 94.6066 562.16 91.9184Z" fill="#A6C1C6"/>
</g>
<g clip-path="url(#clip2_1_2)">
<path d="M729.506 86.5344V115.239C724.161 115.239 724.264 135 718.239 135C717.275 135 716.414 134.82 715.623 134.441C714.435 133.873 713.419 132.857 712.515 131.334C710.811 128.433 709.52 123.699 708.203 116.719C707.11 110.901 705.32 107.467 703.616 99.4363C703.022 96.639 702.876 94.0828 703.099 91.8364C703.685 85.6909 706.981 81.7834 711.328 81.1293C712.18 81.0002 713.04 80.9744 713.91 81.0261C720.692 81.4047 727.629 86.5344 729.506 86.5344Z" fill="#E5E5E4"/>
<path d="M755.395 99.436C753.691 107.466 751.901 110.9 750.808 116.719C748.346 129.784 745.962 135 740.772 135C734.747 135 734.851 115.238 729.506 115.238V86.5341C731.614 86.5341 740.178 80.01 747.683 81.1289C748.389 81.2322 749.061 81.4302 749.706 81.7056C751.711 82.5491 753.381 84.193 754.5 86.4997C756.041 89.6757 756.523 94.1082 755.395 99.436Z" fill="#E5E5E4"/>
<path d="M755.395 99.4361C753.691 107.466 751.901 110.901 750.808 116.719C748.346 129.784 745.962 135 740.772 135C734.747 135 734.85 115.238 729.505 115.238C724.161 115.238 724.264 135 718.239 135C717.275 135 716.414 134.819 715.623 134.441C714.435 133.873 713.419 132.857 712.515 131.334C710.811 128.433 709.52 123.699 708.203 116.719C707.11 110.901 705.32 107.466 703.616 99.4361C703.022 96.6389 702.876 94.0826 703.099 91.8362C703.685 85.6908 706.981 81.7833 711.328 81.1291C712.18 81.0001 713.04 80.9742 713.91 81.0259C720.692 81.4046 727.629 86.5343 729.505 86.5343C731.614 86.5343 740.178 80.0102 747.683 81.1291C748.389 81.2324 749.06 81.4304 749.706 81.7058C751.711 82.5493 753.381 84.1932 754.5 86.4999C756.041 89.6758 756.523 94.1083 755.395 99.4361Z" fill="white"/>
<path d="M724.908 86.7831C721.682 85.1772 717.265 82.978 713.13 82.978C712.61 82.978 712.103 83.0144 711.624 83.0862C709.791 83.3607 708.207 84.3933 707.041 86.0727C704.978 89.0465 704.435 93.769 705.551 99.0287C706.405 103.056 707.298 105.957 708.086 108.517C708.86 111.031 709.591 113.407 710.147 116.357C712.772 130.295 715.101 133.022 718.237 133.022C718.761 133.022 719.437 132.243 720.091 130.885C720.953 129.094 721.664 126.575 722.352 124.138C723.93 118.548 725.42 113.267 729.506 113.267V88.5076C728.372 88.5076 727.068 87.8584 724.908 86.7831Z" fill="white"/>
<path opacity="0.5" d="M736.659 124.138C737.347 126.575 738.058 129.095 738.92 130.885C739.574 132.243 740.25 133.022 740.774 133.022C743.91 133.022 746.239 130.295 748.864 116.357C749.42 113.407 750.151 111.031 750.925 108.516C751.713 105.957 752.606 103.056 753.461 99.0287C754.576 93.7688 754.033 89.0465 751.97 86.0725C750.804 84.3931 749.22 83.3607 747.387 83.0862C746.908 83.0144 746.401 82.978 745.881 82.978C741.746 82.978 737.329 85.1772 734.103 86.7831C731.943 87.8584 730.639 88.5076 729.506 88.5076V113.267C733.592 113.267 735.082 118.548 736.659 124.138Z" fill="#F2F2F2"/>
<path d="M722.356 90.7671C722.038 90.393 721.477 90.3475 721.103 90.6653C720.729 90.9831 720.683 91.5442 721.001 91.9184C723.267 94.586 726.285 96.8413 729.506 96.8758V91.1501C726.815 91.1843 724.279 93.0303 722.356 90.7671Z" fill="#CCCCCC"/>
<path d="M738.16 91.9184C738.478 91.5441 738.432 90.9831 738.058 90.6653C737.684 90.3475 737.123 90.393 736.805 90.7671C734.864 93.0513 732.298 91.1485 729.58 91.1485C729.555 91.1485 729.531 91.1498 729.506 91.1501V96.8758C729.531 96.8761 729.555 96.8775 729.58 96.8775C732.829 96.8775 735.876 94.6066 738.16 91.9184Z" fill="#BCBCBC"/>
</g>
</g>
<defs>
<clipPath id="clip0_1_2">
<rect width="854.557" height="577.897" fill="white"/>
</clipPath>
<clipPath id="clip1_1_2">
<rect width="54" height="54" fill="white" transform="translate(527 81)"/>
</clipPath>
<clipPath id="clip2_1_2">
<rect width="54" height="54" fill="white" transform="translate(703 81)"/>
</clipPath>
</defs>
</svg>
